<?xml version="1.0" standalone="no"?>
<!DOCTYPE svg PUBLIC "-//W3C//DTD SVG 20010904//EN"
 "http://www.w3.org/TR/2001/REC-SVG-20010904/DTD/svg10.dtd">
<svg version="1.0" xmlns="http://www.w3.org/2000/svg"
 width="1024.000000pt" height="1024.000000pt" viewBox="0 0 1024.000000 1024.000000"
 preserveAspectRatio="xMidYMid meet">

<g transform="translate(0.000000,1024.000000) scale(0.100000,-0.100000)"
fill="#000000" stroke="none">
<path d="M4980 7930 c24 -5 9 -7 -49 -6 -58 0 -86 -3 -89 -12 -2 -7 -8 -10
-13 -6 -21 12 -289 -87 -289 -107 0 -5 -3 -8 -7 -7 -13 3 -63 -24 -63 -34 0
-4 -4 -8 -10 -8 -19 0 -110 -72 -103 -82 4 -7 1 -8 -6 -3 -14 8 -121 -90 -121
-111 0 -6 -12 -19 -26 -29 -15 -10 -23 -22 -20 -31 3 -8 2 -13 -3 -9 -5 3 -20
-9 -32 -27 -13 -18 -17 -28 -8 -24 7 4 5 0 -6 -9 -11 -9 -19 -21 -18 -26 2 -5
-2 -9 -7 -9 -6 0 -10 -7 -10 -15 0 -8 -5 -15 -11 -15 -5 0 -7 -4 -4 -10 3 -5
2 -10 -3 -10 -5 0 -14 -12 -21 -27 -11 -27 -11 -27 5 -8 15 18 16 18 10 2 -3
-10 -6 -21 -6 -23 0 -2 -7 -4 -15 -4 -14 0 -17 -4 -19 -32 -1 -7 -6 -19 -13
-26 -17 -18 -33 -80 -26 -99 4 -11 2 -14 -5 -9 -7 4 -12 3 -12 -3 0 -5 4 -12
10 -16 5 -3 6 -13 3 -21 -5 -13 -7 -13 -14 -2 -7 10 -9 9 -9 -4 0 -9 6 -19 13
-21 7 -3 4 -6 -7 -6 -14 -1 -17 -7 -14 -26 3 -15 1 -22 -5 -18 -7 4 -8 -7 -4
-31 4 -23 2 -34 -4 -30 -7 4 -9 -14 -6 -51 3 -38 2 -53 -5 -44 -6 9 -7 -8 -3
-47 4 -40 3 -64 -4 -68 -6 -4 -11 -23 -11 -42 0 -19 -3 -34 -7 -35 -5 0 -127
-2 -273 -3 -146 -1 -273 -6 -282 -10 -10 -5 -18 -16 -18 -25 0 -13 -2 -13 -9
-2 -6 10 -13 6 -27 -18 -10 -17 -23 -31 -28 -31 -5 0 -1 10 10 23 17 20 16 20
-9 -2 -28 -25 -36 -38 -16 -25 7 4 10 1 7 -7 -3 -8 -11 -13 -17 -11 -6 1 -11
0 -11 -2 0 -2 -7 -20 -16 -41 -8 -20 -10 -34 -5 -30 16 10 13 -4 -5 -22 -12
-12 -14 -27 -10 -55 4 -24 2 -38 -5 -38 -7 0 -8 -18 -4 -55 9 -68 -3 -160 -16
-130 -6 13 -7 1 -4 -35 3 -32 2 -50 -3 -42 -11 17 -25 -107 -16 -143 4 -16 2
-25 -5 -25 -8 0 -11 -14 -8 -40 2 -22 0 -40 -6 -40 -5 0 -7 -18 -5 -40 2 -22
0 -40 -4 -40 -4 0 -7 -12 -7 -27 1 -49 -8 -127 -16 -146 -4 -10 -5 -33 -2 -52
3 -20 1 -37 -5 -41 -6 -4 -8 -23 -5 -45 3 -23 1 -39 -5 -39 -7 0 -8 -21 -4
-57 4 -35 3 -53 -2 -45 -12 17 -23 -78 -17 -133 4 -31 3 -36 -5 -20 -8 16 -9
13 -8 -20 0 -22 -2 -47 -5 -55 -6 -16 -8 -48 -7 -143 1 -38 -3 -56 -10 -52 -6
3 -10 -3 -10 -15 0 -12 4 -19 8 -16 5 3 6 -9 4 -26 -3 -22 -7 -27 -14 -17 -6
9 -7 -5 -3 -39 4 -39 3 -52 -5 -47 -9 5 -10 -9 -6 -51 4 -42 3 -53 -4 -39 -7
15 -9 9 -6 -27 2 -27 0 -48 -5 -48 -6 0 -8 -18 -5 -39 2 -22 0 -41 -4 -43 -5
-2 -11 -37 -14 -78 -2 -41 -7 -83 -11 -93 -4 -9 -4 -33 -1 -52 5 -23 3 -35 -4
-35 -8 0 -9 -16 -5 -51 5 -35 3 -49 -4 -45 -10 7 -11 2 -13 -101 -1 -29 -5
-50 -10 -47 -4 3 -8 -9 -8 -26 0 -20 4 -29 11 -24 6 3 3 -5 -6 -20 -11 -16
-16 -39 -13 -61 2 -19 0 -35 -5 -35 -5 0 -7 -20 -5 -45 4 -27 2 -42 -4 -39 -6
4 -8 -12 -4 -40 3 -29 1 -46 -6 -46 -7 0 -9 -17 -6 -45 3 -25 2 -45 -3 -45 -5
0 -7 -33 -5 -72 3 -48 2 -61 -3 -38 -5 24 -7 0 -8 -77 0 -62 3 -110 7 -108 4
2 5 -8 3 -23 -4 -22 -2 -24 7 -12 10 12 11 11 7 -9 -7 -27 22 -93 36 -84 6 4
8 0 5 -9 -6 -14 8 -42 39 -79 68 -80 96 -108 148 -141 32 -21 65 -36 72 -34 7
3 13 1 13 -5 0 -6 5 -7 10 -4 6 3 10 2 10 -3 0 -6 12 -13 27 -17 14 -3 864 -6
1887 -6 1779 1 1863 1 1909 19 26 10 44 22 40 27 -5 4 -2 5 5 1 26 -15 212
133 212 169 0 7 7 16 16 19 9 4 14 13 10 22 -3 8 -2 13 2 10 18 -11 79 141 68
169 -3 8 -1 15 4 15 6 0 10 7 10 15 0 8 -5 15 -10 15 -7 0 -7 6 0 19 13 24 13
44 1 36 -6 -3 -8 11 -6 32 2 21 -2 44 -8 52 -9 12 -9 13 1 7 6 -4 12 -3 12 1
0 5 -6 15 -12 22 -11 11 -10 12 1 6 11 -6 13 -4 7 11 -4 10 -9 24 -10 31 -1 7
-5 16 -9 19 -11 11 -8 36 3 29 11 -7 14 8 4 18 -3 3 -8 27 -10 54 -2 26 -5 66
-7 88 -1 22 -4 60 -5 85 -2 34 -5 41 -12 30 -7 -11 -9 1 -4 40 4 43 3 52 -6
40 -9 -12 -11 -5 -6 30 7 62 -4 171 -15 145 -5 -11 -6 3 -2 33 5 44 3 55 -13
68 -11 9 -13 13 -6 9 8 -4 12 5 12 32 0 29 -3 35 -11 23 -8 -12 -9 -10 -4 8 8
28 -15 273 -26 267 -3 -3 -9 4 -12 15 -3 11 -1 18 4 14 5 -3 9 8 9 25 0 16 -4
32 -9 35 -5 3 -7 24 -4 46 3 24 2 40 -5 40 -5 0 -12 9 -15 20 -3 11 -2 18 3
15 4 -2 8 7 8 20 0 14 -4 25 -8 25 -5 0 -6 21 -4 48 4 36 2 44 -6 32 -9 -11
-10 -2 -5 38 4 35 2 52 -5 52 -6 0 -9 4 -5 9 10 17 -7 174 -17 159 -6 -9 -7
-3 -3 16 7 33 -4 158 -14 152 -3 -2 -5 21 -3 52 2 41 0 53 -7 42 -8 -11 -9 1
-6 40 4 40 3 50 -4 35 -7 -14 -9 -2 -6 45 3 49 2 58 -5 35 -6 -21 -7 -8 -4 45
3 47 2 70 -4 62 -6 -9 -9 6 -8 45 1 68 -25 303 -34 303 -3 0 -4 16 -2 35 2 19
-1 41 -7 48 -6 8 -8 29 -4 50 3 23 2 37 -5 37 -7 0 -9 14 -5 36 5 28 2 39 -10
46 -10 5 -17 21 -16 36 0 24 1 25 9 7 8 -18 9 -17 9 8 1 15 -4 27 -10 27 -7 0
-9 10 -5 26 8 32 -12 136 -25 129 -5 -3 -6 1 -3 9 4 10 -6 28 -27 48 -19 17
-27 28 -19 24 8 -4 4 2 -10 14 -63 54 -85 58 -363 56 -142 -1 -262 1 -266 4
-10 6 -24 124 -24 200 0 46 -1 50 -8 25 -6 -21 -6 -13 -3 28 4 38 2 57 -5 57
-7 0 -9 11 -5 28 4 22 3 24 -6 12 -9 -12 -10 -7 -6 25 4 26 3 33 -3 20 -8 -19
-8 -19 -16 5 -5 15 -4 25 4 28 6 2 11 8 11 13 0 4 -6 6 -14 3 -11 -4 -13 3
-12 28 3 35 -11 88 -22 87 -18 -3 -26 2 -14 9 7 5 10 16 6 25 -3 9 -11 14 -17
10 -6 -4 -8 0 -4 9 4 11 -1 18 -15 22 -19 4 -20 7 -7 22 11 15 12 16 0 10 -9
-6 -12 -5 -9 5 8 20 -41 107 -64 115 -11 3 -17 11 -15 17 6 17 -12 49 -24 42
-5 -4 -8 -1 -7 7 2 7 -1 12 -7 11 -5 0 -19 10 -29 25 -12 15 -14 22 -5 17 8
-5 6 1 -5 13 -10 12 -23 19 -29 15 -5 -3 -7 -1 -3 5 7 12 -100 108 -120 106
-7 -1 -12 3 -11 8 3 13 -133 99 -145 92 -4 -3 -8 -1 -8 3 0 11 -90 56 -97 49
-3 -3 -12 1 -20 9 -8 8 -19 15 -26 15 -6 0 -2 -7 9 -15 18 -14 18 -15 -6 -6
-14 5 -24 14 -22 20 1 6 -6 11 -15 12 -35 1 -67 10 -80 21 -7 6 -45 13 -83 16
-39 2 -70 8 -70 13 0 11 -191 6 -209 -6 -10 -5 -12 -4 -7 3 5 9 0 9 -18 2 -17
-6 -26 -6 -26 0 0 6 -17 9 -37 9 l-38 -2 35 -7z m756 -162 c3 -5 -7 -6 -21 -4
-37 7 -42 14 -10 14 14 0 28 -5 31 -10z m215 -155 c13 -17 13 -17 -6 -3 -11 8
-22 16 -24 17 -2 2 0 3 6 3 6 0 17 -8 24 -17z m-1641 3 c0 -3 -4 -8 -10 -11
-5 -3 -10 -1 -10 4 0 6 5 11 10 11 6 0 10 -2 10 -4z m895 -24 c35 2 62 2 59
-1 -8 -8 147 -42 158 -34 6 3 8 2 5 -4 -8 -12 71 -45 86 -36 6 3 7 1 3 -5 -4
-7 -2 -12 5 -12 6 0 40 -20 76 -45 35 -25 70 -42 76 -39 7 4 9 3 4 -1 -9 -11
21 -45 36 -41 7 2 8 1 4 -2 -5 -2 -1 -13 9 -23 9 -10 21 -16 26 -13 4 3 7 0 6
-8 -2 -7 3 -12 10 -10 6 1 11 -1 11 -5 -3 -21 2 -33 16 -33 8 0 14 -4 13 -9
-2 -5 6 -17 17 -26 11 -9 13 -14 5 -10 -10 4 -9 2 2 -8 10 -8 15 -17 11 -20
-3 -4 2 -7 13 -7 15 0 16 -2 5 -9 -11 -7 -10 -11 5 -20 11 -6 15 -11 11 -11
-5 0 -2 -7 7 -15 8 -9 13 -22 9 -31 -3 -9 0 -14 8 -12 8 2 15 -6 15 -17 1 -11
3 -24 4 -30 1 -5 2 -14 1 -19 -1 -5 5 -6 13 -3 11 5 14 -2 12 -33 -2 -24 1
-37 6 -33 6 3 7 -3 3 -17 -5 -17 -4 -21 6 -15 9 6 11 3 6 -8 -3 -10 -2 -17 3
-17 6 0 10 -8 10 -17 0 -15 -2 -16 -10 -3 -5 8 -10 11 -10 6 0 -5 8 -18 18
-29 9 -11 11 -17 5 -13 -9 5 -13 -2 -13 -23 0 -16 4 -31 8 -33 5 -1 6 -35 4
-75 -4 -63 -7 -72 -26 -76 -11 -2 -396 -3 -854 -2 -617 1 -836 4 -841 13 -4 6
-1 55 5 109 7 53 10 110 7 126 -5 23 -3 28 7 22 10 -6 12 -3 8 13 -4 12 -2 25
4 28 5 3 7 18 4 33 -5 19 -4 22 4 11 8 -13 10 -12 11 5 1 11 2 26 2 33 -1 6 4
12 9 12 6 0 8 7 4 15 -3 8 -2 15 3 15 8 0 25 49 21 59 -1 2 2 7 7 10 15 10 53
78 48 84 -3 4 -2 5 1 3 10 -8 84 96 77 107 -3 6 -2 7 3 4 6 -3 33 15 61 41 28
26 53 47 55 47 13 0 76 50 72 57 -3 4 3 5 12 1 11 -4 15 -3 10 5 -3 6 -1 14 5
18 8 4 9 3 5 -4 -10 -16 -8 -16 57 11 32 13 55 26 51 29 -3 4 4 4 17 1 16 -4
20 -3 15 6 -6 9 0 10 20 5 17 -4 25 -3 21 3 -4 6 3 8 18 5 14 -2 25 0 25 5 0
6 12 8 28 6 19 -3 23 -2 13 5 -9 7 12 8 63 6 52 -3 76 -1 76 7 0 8 4 8 15 -1
10 -8 37 -11 80 -8z m205 -16 c0 -11 -19 -15 -25 -6 -3 5 1 10 9 10 9 0 16 -2
16 -4z m715 -184 c-3 -3 -11 0 -18 7 -9 10 -8 11 6 5 10 -3 15 -9 12 -12z m10
-22 c-3 -5 -12 -10 -18 -10 -7 0 -6 4 3 10 19 12 23 12 15 0z m-2918 -962 c-3
-8 -6 -5 -6 6 -1 11 2 17 5 13 3 -3 4 -12 1 -19z m895 -272 c21 -4 50 -17 65
-30 15 -13 32 -25 38 -27 5 -2 11 -8 12 -14 1 -5 12 -37 23 -69 12 -34 17 -62
12 -65 -5 -3 -12 -17 -16 -31 -6 -19 -5 -21 3 -10 8 11 11 12 11 2 0 -8 -16
-28 -35 -44 -19 -17 -32 -34 -30 -38 3 -4 -3 -14 -12 -21 -12 -10 -14 -10 -9
-1 10 16 -3 15 -34 -4 -14 -8 -17 -13 -7 -10 10 3 16 2 13 -3 -8 -12 -139 -9
-148 3 -5 7 -8 6 -8 -2 0 -7 -5 -10 -10 -7 -6 4 -8 10 -6 14 3 4 -6 14 -20 22
-14 7 -30 21 -35 31 -5 10 -16 15 -24 12 -10 -4 -15 0 -15 11 0 9 -4 13 -10
10 -6 -4 -6 4 1 22 7 19 7 29 0 31 -14 5 -14 37 -1 60 15 27 43 96 42 104 -1
3 5 12 13 18 8 7 15 10 15 6 0 -3 17 3 37 14 21 11 48 20 61 20 16 0 21 4 16
13 -6 9 -4 9 7 1 8 -6 31 -14 51 -18z m2178 -8 c14 0 19 -3 12 -5 -10 -4 -10
-8 -1 -19 6 -8 15 -11 20 -8 5 3 8 2 7 -3 -5 -13 28 -54 37 -45 4 4 6 0 3 -8
-3 -8 1 -21 9 -28 16 -17 17 -54 1 -71 -7 -8 -8 -11 -2 -8 22 12 -37 -92 -65
-116 -17 -14 -27 -28 -23 -32 4 -4 3 -6 -3 -5 -22 5 -46 0 -41 -8 7 -11 -140
-10 -150 1 -5 4 0 5 11 1 11 -3 4 4 -15 16 -19 12 -46 33 -59 48 -13 15 -20
21 -16 13 6 -9 4 -12 -4 -7 -6 4 -11 13 -10 19 3 27 -2 58 -8 54 -5 -3 -9 15
-9 39 -1 24 3 44 8 44 6 0 8 7 4 15 -3 8 1 21 9 29 8 7 12 16 10 18 -2 2 23
22 56 44 l61 40 66 -9 c37 -5 78 -9 92 -9z m808 -223 c-3 -3 -9 2 -12 12 -6
14 -5 15 5 6 7 -7 10 -15 7 -18z m29 -287 c-3 -8 -6 -5 -6 6 -1 11 2 17 5 13
3 -3 4 -12 1 -19z m110 -940 c-3 -8 -6 -5 -6 6 -1 11 2 17 5 13 3 -3 4 -12 1
-19z m80 -670 c-3 -7 -5 -2 -5 12 0 14 2 19 5 13 2 -7 2 -19 0 -25z m-4440
-490 c-3 -8 -6 -5 -6 6 -1 11 2 17 5 13 3 -3 4 -12 1 -19z"/>
<path d="M3182 6240 c0 -14 2 -19 5 -12 2 6 2 18 0 25 -3 6 -5 1 -5 -13z"/>
</g>
</svg>
